<svg xmlns="http://www.w3.org/2000/svg" xmlns:xlink="http://www.w3.org/1999/xlink" width="5000" zoomAndPan="magnify" viewBox="0 0 3750 3749.999967" height="5000" preserveAspectRatio="xMidYMid meet" version="1.0">
    <defs>
        <g/>
        <clipPath id="b3dcc1e2e1">
            <rect x="0" width="3652" y="0" height="3062"/>
        </clipPath>
    </defs>
    <g transform="matrix(1, 0, 0, 1, 0, 0.000000000000269639)">
        <g clip-path="url(#b3dcc1e2e1)">
            <g fill="#ffffff" fill-opacity="1">
                <g transform="translate(-0.749983, 2347.033827)">
                    <g>
                        <path d="M 335.421875 10.703125 C 293.390625 10.703125 256.316406 2.179688 224.203125 -14.859375 C 192.085938 -31.910156 167.503906 -55.503906 150.453125 -85.640625 C 133.410156 -115.773438 124.890625 -149.875 124.890625 -187.9375 C 124.890625 -226 133.410156 -260.09375 150.453125 -290.21875 C 167.503906 -320.351562 192.085938 -344.140625 224.203125 -361.578125 C 256.316406 -379.023438 293.390625 -387.75 335.421875 -387.75 C 378.242188 -387.75 415.710938 -379.222656 447.828125 -362.171875 C 479.941406 -345.128906 504.519531 -321.539062 521.5625 -291.40625 C 538.613281 -261.28125 547.140625 -227.1875 547.140625 -189.125 C 547.140625 -131.238281 527.910156 -83.460938 489.453125 -45.796875 C 450.992188 -8.128906 399.648438 10.703125 335.421875 10.703125 Z M 335.421875 10.703125 "/>
                    </g>
                </g>
                <g transform="translate(671.284152, 2347.033827)">
                    <g>
                        <path d="M 189.125 531.671875 L 189.125 -1311.953125 L 518.59375 -1311.953125 L 518.59375 -1140.671875 L 543.578125 -1135.90625 C 582.429688 -1202.519531 634.367188 -1252.675781 699.390625 -1286.375 C 764.410156 -1320.070312 840.535156 -1336.921875 927.765625 -1336.921875 C 1033.222656 -1336.921875 1125.398438 -1311.941406 1204.296875 -1261.984375 C 1283.203125 -1212.035156 1344.660156 -1136.113281 1388.671875 -1034.21875 C 1432.679688 -932.320312 1454.6875 -806.039062 1454.6875 -655.375 C 1454.6875 -505.507812 1431.488281 -379.828125 1385.09375 -278.328125 C 1338.707031 -176.828125 1274.28125 -100.898438 1191.8125 -50.546875 C 1109.34375 -0.191406 1014.191406 24.984375 906.359375 24.984375 C 824.679688 24.984375 754.101562 11.304688 694.625 -16.046875 C 635.15625 -43.410156 584.804688 -86.035156 543.578125 -143.921875 L 518.59375 -139.171875 L 518.59375 531.671875 Z M 814.765625 -254.546875 C 913.085938 -254.546875 987.625 -286.660156 1038.375 -350.890625 C 1089.125 -415.117188 1114.5 -516.613281 1114.5 -655.375 C 1114.5 -794.144531 1089.125 -895.84375 1038.375 -960.46875 C 987.625 -1025.09375 913.085938 -1057.40625 814.765625 -1057.40625 C 722.785156 -1057.40625 649.832031 -1024.097656 595.90625 -957.484375 C 541.988281 -890.878906 515.03125 -790.175781 515.03125 -655.375 C 515.03125 -521.363281 541.988281 -421.054688 595.90625 -354.453125 C 649.832031 -287.847656 722.785156 -254.546875 814.765625 -254.546875 Z M 814.765625 -254.546875 "/>
                    </g>
                </g>
                <g transform="translate(2242.535618, 2347.033827)">
                    <g>
                        <path d="M 290.21875 556.65625 C 233.914062 556.65625 182.96875 552.289062 137.375 543.5625 C 91.78125 534.84375 54.710938 523.347656 26.171875 509.078125 L 78.5 242.640625 L 99.90625 235.515625 C 119.738281 245.816406 144.320312 254.140625 173.65625 260.484375 C 203 266.828125 233.132812 270 264.0625 270 C 317.1875 270 361.390625 263.0625 396.671875 249.1875 C 431.960938 235.3125 461.898438 212.316406 486.484375 180.203125 C 511.066406 148.085938 532.875 103.484375 551.90625 46.390625 L 28.546875 -1311.953125 L 373.484375 -1311.953125 L 699.390625 -399.65625 L 727.9375 -399.65625 L 1045.515625 -1311.953125 L 1380.9375 -1311.953125 L 854.015625 82.078125 C 811.984375 194.671875 765.789062 285.265625 715.4375 353.859375 C 665.09375 422.453125 605.625 473.398438 537.03125 506.703125 C 468.4375 540.003906 386.164062 556.65625 290.21875 556.65625 Z M 290.21875 556.65625 "/>
                    </g>
                </g>
            </g>
        </g>
    </g>
</svg>