<svg xmlns="http://www.w3.org/2000/svg" xmlns:xlink="http://www.w3.org/1999/xlink" width="5000" zoomAndPan="magnify" viewBox="0 0 3750 3749.999967" height="5000" preserveAspectRatio="xMidYMid meet" version="1.0"><defs><clipPath id="3aa92d47a8"><path d="M 1274 139 L 3646 139 L 3646 3580 L 1274 3580 Z M 1274 139 " clip-rule="nonzero"/></clipPath><clipPath id="af8a32ac73"><path d="M 1169.480469 3389.351562 L 3283.101562 34.539062 L 3750.367188 328.929688 L 1636.746094 3683.738281 Z M 1169.480469 3389.351562 " clip-rule="nonzero"/></clipPath><clipPath id="32742c16c9"><path d="M 1316.675781 3155.71875 L 3135.542969 268.75 C 3174.582031 206.785156 3236.636719 162.867188 3308.054688 146.660156 C 3379.476562 130.449219 3454.410156 143.273438 3516.371094 182.3125 C 3578.335938 221.351562 3622.25 283.40625 3638.460938 354.824219 C 3654.671875 426.242188 3641.847656 501.175781 3602.808594 563.136719 L 1783.941406 3450.105469 C 1744.902344 3512.070312 1682.847656 3555.988281 1611.429688 3572.199219 C 1540.007812 3588.40625 1465.078125 3575.582031 1403.113281 3536.542969 C 1341.152344 3497.507812 1297.234375 3435.453125 1281.023438 3364.03125 C 1264.8125 3292.613281 1277.636719 3217.679688 1316.675781 3155.71875 Z M 1316.675781 3155.71875 " clip-rule="nonzero"/></clipPath><clipPath id="2895248a1c"><path d="M 0 0 L 2372 0 L 2372 3441 L 0 3441 Z M 0 0 " clip-rule="nonzero"/></clipPath><clipPath id="2b4701100f"><path d="M -104.519531 3250.351562 L 2009.101562 -104.460938 L 2476.367188 189.929688 L 362.746094 3544.738281 Z M -104.519531 3250.351562 " clip-rule="nonzero"/></clipPath><clipPath id="cb9667f870"><path d="M 42.675781 3016.71875 L 1861.542969 129.75 C 1900.582031 67.785156 1962.636719 23.867188 2034.054688 7.660156 C 2105.476562 -8.550781 2180.410156 4.273438 2242.371094 43.3125 C 2304.335938 82.351562 2348.25 144.40625 2364.460938 215.824219 C 2380.671875 287.242188 2367.847656 362.175781 2328.808594 424.136719 L 509.941406 3311.105469 C 470.902344 3373.070312 408.847656 3416.988281 337.429688 3433.199219 C 266.007812 3449.40625 191.078125 3436.582031 129.113281 3397.542969 C 67.152344 3358.507812 23.234375 3296.453125 7.023438 3225.03125 C -9.1875 3153.613281 3.636719 3078.679688 42.675781 3016.71875 Z M 42.675781 3016.71875 " clip-rule="nonzero"/></clipPath><clipPath id="65b5d83cf0"><rect x="0" width="2372" y="0" height="3441"/></clipPath><clipPath id="d9d8c76f93"><path d="M 119 1692 L 1770 1692 L 1770 3582 L 119 3582 Z M 119 1692 " clip-rule="nonzero"/></clipPath><clipPath id="b8023e9c13"><path d="M 1433.769531 3701.339844 L -0.964844 1943.140625 L 453.679688 1572.136719 L 1888.417969 3330.339844 Z M 1433.769531 3701.339844 " clip-rule="nonzero"/></clipPath><clipPath id="202bf8491f"><path d="M 1248.269531 3474.015625 L 185.496094 2171.636719 C 83.046875 2046.089844 101.769531 1861.261719 227.316406 1758.8125 C 352.863281 1656.363281 537.691406 1675.085938 640.140625 1800.632812 L 1702.914062 3103.015625 C 1805.367188 3228.5625 1786.640625 3413.390625 1661.09375 3515.839844 C 1535.546875 3618.289062 1350.71875 3599.5625 1248.269531 3474.015625 Z M 1248.269531 3474.015625 " clip-rule="nonzero"/></clipPath><clipPath id="6d7c2fcb9b"><path d="M 0 0 L 1651 0 L 1651 1890 L 0 1890 Z M 0 0 " clip-rule="nonzero"/></clipPath><clipPath id="a6a5400ec3"><path d="M 1314.769531 2009.339844 L -119.964844 251.140625 L 334.679688 -119.863281 L 1769.417969 1638.339844 Z M 1314.769531 2009.339844 " clip-rule="nonzero"/></clipPath><clipPath id="93d1e7cd53"><path d="M 1129.269531 1782.015625 L 66.496094 479.636719 C -35.953125 354.089844 -17.230469 169.261719 108.316406 66.8125 C 233.863281 -35.636719 418.691406 -16.914062 521.140625 108.632812 L 1583.914062 1411.015625 C 1686.367188 1536.5625 1667.640625 1721.390625 1542.09375 1823.839844 C 1416.546875 1926.289062 1231.71875 1907.5625 1129.269531 1782.015625 Z M 1129.269531 1782.015625 " clip-rule="nonzero"/></clipPath><clipPath id="d9383a2b7e"><rect x="0" width="1651" y="0" height="1890"/></clipPath><clipPath id="28745b2638"><path d="M 1190.953125 2970.027344 L 1828.230469 2970.027344 L 1828.230469 3607.308594 L 1190.953125 3607.308594 Z M 1190.953125 2970.027344 " clip-rule="nonzero"/></clipPath><clipPath id="ab8ba7c80e"><path d="M 1509.59375 2970.027344 C 1333.613281 2970.027344 1190.953125 3112.6875 1190.953125 3288.667969 C 1190.953125 3464.648438 1333.613281 3607.308594 1509.59375 3607.308594 C 1685.570312 3607.308594 1828.230469 3464.648438 1828.230469 3288.667969 C 1828.230469 3112.6875 1685.570312 2970.027344 1509.59375 2970.027344 Z M 1509.59375 2970.027344 " clip-rule="nonzero"/></clipPath><clipPath id="e9d7b94ef3"><path d="M 0.953125 0.0273438 L 638.230469 0.0273438 L 638.230469 637.308594 L 0.953125 637.308594 Z M 0.953125 0.0273438 " clip-rule="nonzero"/></clipPath><clipPath id="e30c0b8b0c"><path d="M 319.59375 0.0273438 C 143.613281 0.0273438 0.953125 142.6875 0.953125 318.667969 C 0.953125 494.648438 143.613281 637.308594 319.59375 637.308594 C 495.570312 637.308594 638.230469 494.648438 638.230469 318.667969 C 638.230469 142.6875 495.570312 0.0273438 319.59375 0.0273438 Z M 319.59375 0.0273438 " clip-rule="nonzero"/></clipPath><clipPath id="158b845262"><rect x="0" width="639" y="0" height="638"/></clipPath></defs><g clip-path="url(#3aa92d47a8)"><g clip-path="url(#af8a32ac73)"><g clip-path="url(#32742c16c9)"><g transform="matrix(1, 0, 0, 1, 1274, 139)"><g clip-path="url(#65b5d83cf0)"><g clip-path="url(#2895248a1c)"><g clip-path="url(#2b4701100f)"><g clip-path="url(#cb9667f870)"><path fill="currentColor" d="M -104.519531 3250.351562 L 2009.101562 -104.460938 L 2476.367188 189.929688 L 362.746094 3544.738281 Z M -104.519531 3250.351562 " fill-opacity="1" fill-rule="nonzero"/></g></g></g></g></g></g></g></g><g clip-path="url(#d9d8c76f93)"><g clip-path="url(#b8023e9c13)"><g clip-path="url(#202bf8491f)"><g transform="matrix(1, 0, 0, 1, 119, 1692)"><g clip-path="url(#d9383a2b7e)"><g clip-path="url(#6d7c2fcb9b)"><g clip-path="url(#a6a5400ec3)"><g clip-path="url(#93d1e7cd53)"><path fill="currentColor" d="M 1314.769531 2009.339844 L -118.515625 252.914062 L 336.128906 -118.085938 L 1769.417969 1638.339844 Z M 1314.769531 2009.339844 " fill-opacity="1" fill-rule="nonzero"/></g></g></g></g></g></g></g></g><g clip-path="url(#28745b2638)"><g clip-path="url(#ab8ba7c80e)"><g transform="matrix(1, 0, 0, 1, 1190, 2970)"><g clip-path="url(#158b845262)"><g clip-path="url(#e9d7b94ef3)"><g clip-path="url(#e30c0b8b0c)"><path fill="currentColor" d="M 0.953125 0.0273438 L 638.230469 0.0273438 L 638.230469 637.308594 L 0.953125 637.308594 Z M 0.953125 0.0273438 " fill-opacity="1" fill-rule="nonzero"/></g></g></g></g></g></g></svg>