<svg xmlns="http://www.w3.org/2000/svg" xmlns:xlink="http://www.w3.org/1999/xlink" width="5000" zoomAndPan="magnify" viewBox="0 0 3750 3749.999967" height="5000" preserveAspectRatio="xMidYMid meet" version="1.0"><defs><clipPath id="99364e696e"><path d="M 0.789062 0 L 3508 0 L 3508 398.867188 L 0.789062 398.867188 Z M 0.789062 0 " clip-rule="nonzero"/></clipPath><clipPath id="760a4cc3f5"><path d="M 200.222656 0 L 3307.777344 0 C 3360.671875 0 3411.398438 21.011719 3448.796875 58.414062 C 3486.199219 95.8125 3507.210938 146.539062 3507.210938 199.433594 C 3507.210938 252.324219 3486.199219 303.050781 3448.796875 340.453125 C 3411.398438 377.855469 3360.671875 398.867188 3307.777344 398.867188 L 200.222656 398.867188 C 147.328125 398.867188 96.601562 377.855469 59.203125 340.453125 C 21.800781 303.050781 0.789062 252.324219 0.789062 199.433594 C 0.789062 146.539062 21.800781 95.8125 59.203125 58.414062 C 96.601562 21.011719 147.328125 0 200.222656 0 Z M 200.222656 0 " clip-rule="nonzero"/></clipPath><clipPath id="a3e7840a7d"><path d="M 0.789062 0 L 3507 0 L 3507 398.867188 L 0.789062 398.867188 Z M 0.789062 0 " clip-rule="nonzero"/></clipPath><clipPath id="30a6f1b1ff"><path d="M 200.222656 0 L 3307.777344 0 C 3360.671875 0 3411.398438 21.011719 3448.796875 58.414062 C 3486.199219 95.8125 3507.210938 146.539062 3507.210938 199.433594 C 3507.210938 252.324219 3486.199219 303.050781 3448.796875 340.453125 C 3411.398438 377.855469 3360.671875 398.867188 3307.777344 398.867188 L 200.222656 398.867188 C 147.328125 398.867188 96.601562 377.855469 59.203125 340.453125 C 21.800781 303.050781 0.789062 252.324219 0.789062 199.433594 C 0.789062 146.539062 21.800781 95.8125 59.203125 58.414062 C 96.601562 21.011719 147.328125 0 200.222656 0 Z M 200.222656 0 " clip-rule="nonzero"/></clipPath><clipPath id="8a8bb9a6a8"><rect x="0" width="3508" y="0" height="399"/></clipPath><clipPath id="87019bd26f"><path d="M 919.601562 328.148438 L 2588.398438 328.148438 L 2588.398438 3750 L 919.601562 3750 Z M 919.601562 328.148438 " clip-rule="nonzero"/></clipPath><clipPath id="eea12a2865"><path d="M 1144.601562 328.148438 L 2363.398438 328.148438 C 2423.074219 328.148438 2480.300781 351.851562 2522.496094 394.046875 C 2564.695312 436.242188 2588.398438 493.472656 2588.398438 553.148438 L 2588.398438 3525 C 2588.398438 3584.675781 2564.695312 3641.902344 2522.496094 3684.097656 C 2480.300781 3726.296875 2423.074219 3750 2363.398438 3750 L 1144.601562 3750 C 1084.925781 3750 1027.699219 3726.296875 985.503906 3684.097656 C 943.304688 3641.902344 919.601562 3584.675781 919.601562 3525 L 919.601562 553.148438 C 919.601562 493.472656 943.304688 436.242188 985.503906 394.046875 C 1027.699219 351.851562 1084.925781 328.148438 1144.601562 328.148438 Z M 1144.601562 328.148438 " clip-rule="nonzero"/></clipPath><clipPath id="40933affd2"><path d="M 0.601562 0.148438 L 1669.398438 0.148438 L 1669.398438 3422 L 0.601562 3422 Z M 0.601562 0.148438 " clip-rule="nonzero"/></clipPath><clipPath id="0a93e6d7b0"><path d="M 225.601562 0.148438 L 1444.398438 0.148438 C 1504.074219 0.148438 1561.300781 23.851562 1603.496094 66.046875 C 1645.695312 108.242188 1669.398438 165.472656 1669.398438 225.148438 L 1669.398438 3197 C 1669.398438 3256.675781 1645.695312 3313.902344 1603.496094 3356.097656 C 1561.300781 3398.296875 1504.074219 3422 1444.398438 3422 L 225.601562 3422 C 165.925781 3422 108.699219 3398.296875 66.503906 3356.097656 C 24.304688 3313.902344 0.601562 3256.675781 0.601562 3197 L 0.601562 225.148438 C 0.601562 165.472656 24.304688 108.242188 66.503906 66.046875 C 108.699219 23.851562 165.925781 0.148438 225.601562 0.148438 Z M 225.601562 0.148438 " clip-rule="nonzero"/></clipPath><clipPath id="fa0483689f"><rect x="0" width="1670" y="0" height="3422"/></clipPath><clipPath id="0ed812cfab"><path d="M 686.121094 154.15625 L 1166 154.15625 L 1166 633.199219 L 686.121094 633.199219 Z M 686.121094 154.15625 " clip-rule="nonzero"/></clipPath><clipPath id="d8eb509496"><path d="M 686.121094 154.15625 C 812.285156 154.15625 935.648438 205.253906 1024.859375 294.464844 C 1114.066406 383.675781 1165.167969 507.039062 1165.167969 633.199219 L 920.773438 633.199219 C 920.773438 571.402344 895.746094 510.972656 852.046875 467.273438 C 808.347656 423.578125 747.921875 398.546875 686.121094 398.546875 Z M 686.121094 154.15625 " clip-rule="nonzero"/></clipPath><clipPath id="22284d9706"><path d="M 0.121094 0.15625 L 479.398438 0.15625 L 479.398438 479.199219 L 0.121094 479.199219 Z M 0.121094 0.15625 " clip-rule="nonzero"/></clipPath><clipPath id="1cac2cb92e"><path d="M 0.121094 0.15625 C 126.285156 0.15625 249.648438 51.253906 338.859375 140.464844 C 428.066406 229.675781 479.167969 353.039062 479.167969 479.199219 L 234.773438 479.199219 C 234.773438 417.402344 209.746094 356.972656 166.046875 313.273438 C 122.347656 269.578125 61.921875 244.546875 0.121094 244.546875 Z M 0.121094 0.15625 " clip-rule="nonzero"/></clipPath><clipPath id="be63a41a05"><rect x="0" width="480" y="0" height="480"/></clipPath><clipPath id="722325d238"><path d="M 2342.824219 154 L 2821.867188 154 L 2821.867188 633.199219 L 2342.824219 633.199219 Z M 2342.824219 154 " clip-rule="nonzero"/></clipPath><clipPath id="300861c5f9"><path d="M 2342.824219 633.199219 C 2342.824219 507.039062 2393.921875 383.675781 2483.132812 294.464844 C 2572.34375 205.253906 2695.707031 154.15625 2821.867188 154.15625 L 2821.867188 398.546875 C 2760.070312 398.546875 2699.640625 423.578125 2655.945312 467.273438 C 2612.246094 510.972656 2587.214844 571.402344 2587.214844 633.199219 Z M 2342.824219 633.199219 " clip-rule="nonzero"/></clipPath><clipPath id="5414594ebb"><path d="M 0.824219 0.0820312 L 479.867188 0.0820312 L 479.867188 479.199219 L 0.824219 479.199219 Z M 0.824219 0.0820312 " clip-rule="nonzero"/></clipPath><clipPath id="89b45ba82d"><path d="M 0.824219 479.199219 C 0.824219 353.039062 51.921875 229.675781 141.132812 140.464844 C 230.34375 51.253906 353.707031 0.15625 479.867188 0.15625 L 479.867188 244.546875 C 418.070312 244.546875 357.640625 269.578125 313.945312 313.273438 C 270.246094 356.972656 245.214844 417.402344 245.214844 479.199219 Z M 0.824219 479.199219 " clip-rule="nonzero"/></clipPath><clipPath id="8e99c03682"><rect x="0" width="480" y="0" height="480"/></clipPath><clipPath id="d9228fa495"><rect x="0" width="3509" y="0" height="3750"/></clipPath></defs><g transform="matrix(1, 0, 0, 1, 121, 0.000000000000269639)"><g clip-path="url(#d9228fa495)"><g clip-path="url(#99364e696e)"><g clip-path="url(#760a4cc3f5)"><g transform="matrix(1, 0, 0, 1, -0.000000000000028422, 0.000000000000269639)"><g clip-path="url(#8a8bb9a6a8)"><g clip-path="url(#a3e7840a7d)"><g clip-path="url(#30a6f1b1ff)"><path fill="#000000" d="M 0.789062 0 L 3506.441406 0 L 3506.441406 398.867188 L 0.789062 398.867188 Z M 0.789062 0 " fill-opacity="1" fill-rule="nonzero"/></g></g></g></g></g></g><g clip-path="url(#87019bd26f)"><g clip-path="url(#eea12a2865)"><g transform="matrix(1, 0, 0, 1, 919, 328)"><g clip-path="url(#fa0483689f)"><g clip-path="url(#40933affd2)"><g clip-path="url(#0a93e6d7b0)"><path fill="#000000" d="M 0.601562 0.148438 L 1669.398438 0.148438 L 1669.398438 3422.488281 L 0.601562 3422.488281 Z M 0.601562 0.148438 " fill-opacity="1" fill-rule="nonzero"/></g></g></g></g></g></g><g clip-path="url(#0ed812cfab)"><g clip-path="url(#d8eb509496)"><g transform="matrix(1, 0, 0, 1, 686, 154)"><g clip-path="url(#be63a41a05)"><g clip-path="url(#22284d9706)"><g clip-path="url(#1cac2cb92e)"><path fill="#000000" d="M 479.167969 0.15625 L 479.167969 479.199219 L 0.121094 479.199219 L 0.121094 0.15625 Z M 479.167969 0.15625 " fill-opacity="1" fill-rule="nonzero"/></g></g></g></g></g></g><g clip-path="url(#722325d238)"><g clip-path="url(#300861c5f9)"><g transform="matrix(1, 0, 0, 1, 2342, 154)"><g clip-path="url(#8e99c03682)"><g clip-path="url(#5414594ebb)"><g clip-path="url(#89b45ba82d)"><path fill="#000000" d="M 0.824219 0.15625 L 479.867188 0.15625 L 479.867188 479.199219 L 0.824219 479.199219 Z M 0.824219 0.15625 " fill-opacity="1" fill-rule="nonzero"/></g></g></g></g></g></g></g></g></svg>