<svg viewBox="0 0 160 160" xmlns="http://www.w3.org/2000/svg" xmlns:xlink="http://www.w3.org/1999/xlink" class="icon" draggable="false" aria-hidden="true">
	<defs>
		<linearGradient x1="100%" y1="100%" x2="50%" y2="50%" id="f2f15fa97739d6b8762a5540d983611bb">
			<stop stop-color="#8700FF" offset="0%"></stop>
			<stop stop-color="#EE00E1" stop-opacity="0" offset="100%"></stop>
		</linearGradient>
		<linearGradient x1="0%" y1="100%" x2="50%" y2="50%" id="f2f15fa97739d6b8762a5540d983611bc">
			<stop stop-color="#E00" offset="0%"></stop>
			<stop stop-color="#EE00E1" stop-opacity="0" offset="100%"></stop>
		</linearGradient>
		<linearGradient x1="100%" y1="0%" x2="50%" y2="50%" id="f2f15fa97739d6b8762a5540d983611bd">
			<stop stop-color="#00B1EE" offset="0%"></stop>
			<stop stop-color="#00B1EE" stop-opacity="0" offset="100%"></stop>
		</linearGradient>
		<linearGradient x1="-17.876%" y1="21.021%" x2="48.935%" y2="50%" id="f2f15fa97739d6b8762a5540d983611be">
			<stop stop-color="#FFA456" offset="0%"></stop>
			<stop stop-color="#FFA456" stop-opacity="0" offset="100%"></stop>
		</linearGradient>
		<path d="M89.905 152.381a3.81 3.81 0 110 7.619 3.81 3.81 0 010-7.619zm-23.737 2.79a3.81 3.81 0 117.36 1.973 3.81 3.81 0 01-7.36-1.972zm46.799-5.126a3.81 3.81 0 11-7.36 1.972 3.81 3.81 0 017.36-1.972zm-60.58-2.409a3.81 3.81 0 11-3.81 6.598 3.81 3.81 0 013.81-6.598zm28.777-4.373a3.302 3.302 0 11-.804 6.554 3.302 3.302 0 01.804-6.554zm-16.684-1.899a3.338 3.338 0 11-2.5 6.19 3.338 3.338 0 012.5-6.19zm36.901 2.383a3.338 3.338 0 11-6.61.93 3.338 3.338 0 016.61-.93zm28.591-4.621a3.81 3.81 0 11-6.598 3.81 3.81 3.81 0 016.598-3.81zm-94.15-.941a3.81 3.81 0 11-5.387 5.387 3.81 3.81 0 015.388-5.387zm52.547-.486a3.023 3.023 0 110 6.047 3.023 3.023 0 010-6.047zm-15.136.077a3.023 3.023 0 11-1.565 5.841 3.023 3.023 0 011.565-5.84zm-24.278-2.592a3.338 3.338 0 11-4.017 5.331 3.338 3.338 0 014.017-5.331zm68.381.883a3.338 3.338 0 11-6.145 2.609 3.338 3.338 0 016.145-2.609zm-10.664-.222a3.023 3.023 0 11-5.841 1.565 3.023 3.023 0 015.84-1.565zm-48.079-1.912a3.023 3.023 0 11-3.023 5.237 3.023 3.023 0 013.023-5.237zm22.334-3.47a2.62 2.62 0 11-.639 5.201 2.62 2.62 0 01.639-5.202zm-13.241-1.507a2.65 2.65 0 11-1.985 4.912 2.65 2.65 0 011.985-4.912zm29.286 1.891a2.65 2.65 0 11-5.246.737 2.65 2.65 0 015.246-.737zm23.196-3.668a3.023 3.023 0 11-5.236 3.024 3.023 3.023 0 015.236-3.024zm-74.721-.747a3.023 3.023 0 11-4.276 4.276 3.023 3.023 0 014.276-4.276zm98.125-2.255a3.81 3.81 0 11-5.387 5.388 3.81 3.81 0 015.387-5.388zM35.56 125.196a3.338 3.338 0 11-5.26 4.11 3.338 3.338 0 015.26-4.11zm-13.29-.428a3.81 3.81 0 11-6.599 3.81 3.81 3.81 0 016.599-3.81zm108.491-.249a3.338 3.338 0 11-5.26 4.11 3.338 3.338 0 015.26-4.11zm-75.396-.468a2.65 2.65 0 11-3.188 4.231 2.65 2.65 0 013.188-4.231zm54.271.7a2.65 2.65 0 11-4.877 2.071 2.65 2.65 0 014.877-2.07zm21.327-9.436a3.023 3.023 0 11-4.276 4.276 3.023 3.023 0 014.276-4.276zm-86.23.808a2.65 2.65 0 11-4.175 3.262 2.65 2.65 0 014.175-3.262zm-10.043-.339a3.023 3.023 0 11-5.236 3.024 3.023 3.023 0 015.236-3.024zm85.6-.197a2.65 2.65 0 11-4.175 3.262 2.65 2.65 0 014.175-3.262zm-95.085-3.507a3.338 3.338 0 11-6.145 2.609 3.338 3.338 0 016.145-2.609zm115.534-2.19a3.338 3.338 0 11-4.018 5.332 3.338 3.338 0 014.018-5.331zm12.102-3.672a3.81 3.81 0 11-3.81 6.599 3.81 3.81 0 013.81-6.599zM12.65 108.301a3.81 3.81 0 11-7.36 1.972 3.81 3.81 0 017.36-1.972zm23.865-2.586a2.65 2.65 0 11-4.877 2.07 2.65 2.65 0 014.877-2.07zm91.693-1.738a2.65 2.65 0 11-3.188 4.231 2.65 2.65 0 013.188-4.231zm10.11-2.915a3.023 3.023 0 11-3.023 5.237 3.023 3.023 0 013.023-5.237zm-111.262 1.653a3.023 3.023 0 11-5.841 1.565 3.023 3.023 0 015.84-1.565zm-8.458-5.983a3.338 3.338 0 11-6.611.93 3.338 3.338 0 016.61-.93zm127.992-3.554a3.338 3.338 0 11-2.5 6.19 3.338 3.338 0 012.5-6.19zm-115.319.356a2.65 2.65 0 11-5.246.737 2.65 2.65 0 015.246-.737zm101.581-2.821a2.65 2.65 0 11-1.984 4.912 2.65 2.65 0 011.984-4.912zm19.627-1.547a3.81 3.81 0 117.36 1.972 3.81 3.81 0 01-7.36-1.972zM3.81 86.096a3.81 3.81 0 110 7.618 3.81 3.81 0 010-7.619zm137.923-.705a3.023 3.023 0 11-1.565 5.84 3.023 3.023 0 011.565-5.84zm-121.694-.3a3.023 3.023 0 110 6.047 3.023 3.023 0 010-6.047zm-6.938-8.368a3.302 3.302 0 11-.805 6.554 3.302 3.302 0 01.805-6.554zm13.807.93a2.62 2.62 0 11-.638 5.202 2.62 2.62 0 01.638-5.202zm120.796-1.946a3.302 3.302 0 11-.805 6.554 3.302 3.302 0 01.805-6.554zm-13.968 1.14a2.62 2.62 0 11-.638 5.201 2.62 2.62 0 01.638-5.201zm7.24-7.477a3.023 3.023 0 110 6.046 3.023 3.023 0 010-6.046zm-120.128-.094a3.023 3.023 0 11-1.565 5.841 3.023 3.023 0 011.565-5.84zm135.342-2.99a3.81 3.81 0 110 7.619 3.81 3.81 0 010-7.62zM.162 68.862a3.81 3.81 0 117.36 1.972 3.81 3.81 0 01-7.36-1.972zm29.28-5.072a2.65 2.65 0 11-1.984 4.913 2.65 2.65 0 011.985-4.913zm104.844 1.355a2.65 2.65 0 11-5.247.737 2.65 2.65 0 015.247-.737zm-117.992-5.89a3.338 3.338 0 11-2.5 6.19 3.338 3.338 0 012.5-6.19zm132.102 1.708a3.338 3.338 0 11-6.61.929 3.338 3.338 0 016.61-.93zm-8.594-4.735a3.023 3.023 0 11-5.84 1.565 3.023 3.023 0 015.84-1.565zm-114.08-2.019a3.023 3.023 0 11-3.024 5.237 3.023 3.023 0 013.024-5.237zm9.569-3.001a2.65 2.65 0 11-3.189 4.23 2.65 2.65 0 013.189-4.23zm93.381.423a2.65 2.65 0 11-4.877 2.07 2.65 2.65 0 014.877-2.07zm26.039-1.904a3.81 3.81 0 11-7.36 1.972 3.81 3.81 0 017.36-1.972zM10.969 47.183a3.81 3.81 0 11-3.809 6.599 3.81 3.81 0 013.81-6.599zm12.693-3.781a3.338 3.338 0 11-4.017 5.331 3.338 3.338 0 014.017-5.331zm117.661.533a3.338 3.338 0 11-6.145 2.608 3.338 3.338 0 016.145-2.608zm-9.76-2.235a3.023 3.023 0 11-5.237 3.024 3.023 3.023 0 015.237-3.024zm-97.233-.783a3.023 3.023 0 11-4.276 4.276 3.023 3.023 0 014.276-4.276zm9.866-.35a2.65 2.65 0 11-4.175 3.262 2.65 2.65 0 014.175-3.262zm75.556-.537a2.65 2.65 0 11-4.175 3.262 2.65 2.65 0 014.175-3.262zm24.578-8.608a3.81 3.81 0 11-6.599 3.81 3.81 3.81 0 016.599-3.81zm-122.515-.987a3.81 3.81 0 11-5.387 5.388 3.81 3.81 0 015.387-5.388zm33.736 2.159a2.65 2.65 0 11-4.877 2.07 2.65 2.65 0 014.877-2.07zm52.583-1.46a2.65 2.65 0 11-3.189 4.231 2.65 2.65 0 013.189-4.231zm-73.251-1.14a3.338 3.338 0 11-5.26 4.11 3.338 3.338 0 015.26-4.11zm84.962-.194a3.023 3.023 0 11-4.276 4.276 3.023 3.023 0 014.276-4.276zm-73.76.505a3.023 3.023 0 11-5.238 3.024 3.023 3.023 0 015.237-3.024zm83.999-.987a3.338 3.338 0 11-5.26 4.11 3.338 3.338 0 015.26-4.11zm-61.5-1.487a2.65 2.65 0 11-5.247.738 2.65 2.65 0 015.247-.738zm26.024-2.284a2.65 2.65 0 11-1.984 4.913 2.65 2.65 0 011.984-4.913zm-14.487-1.912a2.62 2.62 0 11-.639 5.201 2.62 2.62 0 01.639-5.201zm25.325-2.297a3.023 3.023 0 11-3.023 5.237 3.023 3.023 0 013.023-5.237zm-45.261 1.76a3.023 3.023 0 11-5.841 1.565 3.023 3.023 0 015.84-1.565zm-10.994-3.15a3.338 3.338 0 11-6.145 2.609 3.338 3.338 0 016.145-2.609zm66.254-1.84a3.338 3.338 0 11-4.018 5.332 3.338 3.338 0 014.018-5.331zm14.12-1.68a3.81 3.81 0 11-5.388 5.387 3.81 3.81 0 015.388-5.387zm-40.217.463a3.023 3.023 0 11-1.565 5.84 3.023 3.023 0 011.565-5.84zm-16.701-.13a3.023 3.023 0 110 6.048 3.023 3.023 0 010-6.047zm-36.02.304a3.81 3.81 0 11-6.6 3.81 3.81 3.81 0 016.6-3.81zm28.985-3.118a3.338 3.338 0 11-6.611.93 3.338 3.338 0 016.61-.93zm32.79-2.877a3.338 3.338 0 11-2.5 6.19 3.338 3.338 0 012.5-6.19zM80.149 8.66a3.302 3.302 0 11-.804 6.553 3.302 3.302 0 01.804-6.553zm31.274-2.894a3.81 3.81 0 11-3.81 6.598 3.81 3.81 0 013.81-6.598zm-57.03 2.217a3.81 3.81 0 11-7.359 1.972 3.81 3.81 0 017.36-1.972zM91.139.163a3.81 3.81 0 11-1.972 7.359 3.81 3.81 0 011.972-7.36zM70.095 0a3.81 3.81 0 110 7.619 3.81 3.81 0 010-7.619z"
			id="f2f15fa97739d6b8762a5540d983611ba"></path>
	</defs>
	<use fill="#FFF" xlink:href="#f2f15fa97739d6b8762a5540d983611ba"></use>
	<use fill="url(#f2f15fa97739d6b8762a5540d983611bb)" xlink:href="#f2f15fa97739d6b8762a5540d983611ba"></use>
	<use fill="url(#f2f15fa97739d6b8762a5540d983611bc)" xlink:href="#f2f15fa97739d6b8762a5540d983611ba"></use>
	<use fill="url(#f2f15fa97739d6b8762a5540d983611bd)" xlink:href="#f2f15fa97739d6b8762a5540d983611ba"></use>
	<use fill="url(#f2f15fa97739d6b8762a5540d983611be)" xlink:href="#f2f15fa97739d6b8762a5540d983611ba"></use>
	
	<!-- Tu logo NAT con las transformaciones correctas para cada letra -->
	<g transform="translate(51, 51) scale(0.015)">
		
		<defs><g/><clipPath id="b3dcc1e2e1"><rect x="0" width="3652" y="0" height="3062"/></clipPath></defs><g transform="matrix(1, 0, 0, 1, 0, 0.000000000000269639)"><g clip-path="url(#b3dcc1e2e1)"><g fill="#000000" fill-opacity="1"><g transform="translate(-0.749983, 2347.033827)"><g>


		<path d="M 335.421875 10.703125 C 293.390625 10.703125 256.316406 2.179688 224.203125 -14.859375 C 192.085938 -31.910156 167.503906 -55.503906 150.453125 -85.640625 C 133.410156 -115.773438 124.890625 -149.875 124.890625 -187.9375 C 124.890625 -226 133.410156 -260.09375 150.453125 -290.21875 C 167.503906 -320.351562 192.085938 -344.140625 224.203125 -361.578125 C 256.316406 -379.023438 293.390625 -387.75 335.421875 -387.75 C 378.242188 -387.75 415.710938 -379.222656 447.828125 -362.171875 C 479.941406 -345.128906 504.519531 -321.539062 521.5625 -291.40625 C 538.613281 -261.28125 547.140625 -227.1875 547.140625 -189.125 C 547.140625 -131.238281 527.910156 -83.460938 489.453125 -45.796875 C 450.992188 -8.128906 399.648438 10.703125 335.421875 10.703125 Z M 335.421875 10.703125 "/>
		</g></g><g transform="translate(671.284152, 2347.033827)"><g>
		<path d="M 189.125 531.671875 L 189.125 -1311.953125 L 518.59375 -1311.953125 L 518.59375 -1140.671875 L 543.578125 -1135.90625 C 582.429688 -1202.519531 634.367188 -1252.675781 699.390625 -1286.375 C 764.410156 -1320.070312 840.535156 -1336.921875 927.765625 -1336.921875 C 1033.222656 -1336.921875 1125.398438 -1311.941406 1204.296875 -1261.984375 C 1283.203125 -1212.035156 1344.660156 -1136.113281 1388.671875 -1034.21875 C 1432.679688 -932.320312 1454.6875 -806.039062 1454.6875 -655.375 C 1454.6875 -505.507812 1431.488281 -379.828125 1385.09375 -278.328125 C 1338.707031 -176.828125 1274.28125 -100.898438 1191.8125 -50.546875 C 1109.34375 -0.191406 1014.191406 24.984375 906.359375 24.984375 C 824.679688 24.984375 754.101562 11.304688 694.625 -16.046875 C 635.15625 -43.410156 584.804688 -86.035156 543.578125 -143.921875 L 518.59375 -139.171875 L 518.59375 531.671875 Z M 814.765625 -254.546875 C 913.085938 -254.546875 987.625 -286.660156 1038.375 -350.890625 C 1089.125 -415.117188 1114.5 -516.613281 1114.5 -655.375 C 1114.5 -794.144531 1089.125 -895.84375 1038.375 -960.46875 C 987.625 -1025.09375 913.085938 -1057.40625 814.765625 -1057.40625 C 722.785156 -1057.40625 649.832031 -1024.097656 595.90625 -957.484375 C 541.988281 -890.878906 515.03125 -790.175781 515.03125 -655.375 C 515.03125 -521.363281 541.988281 -421.054688 595.90625 -354.453125 C 649.832031 -287.847656 722.785156 -254.546875 814.765625 -254.546875 Z M 814.765625 -254.546875 "/>
		</g></g><g transform="translate(2242.535618, 2347.033827)"><g>
		<path d="M 290.21875 556.65625 C 233.914062 556.65625 182.96875 552.289062 137.375 543.5625 C 91.78125 534.84375 54.710938 523.347656 26.171875 509.078125 L 78.5 242.640625 L 99.90625 235.515625 C 119.738281 245.816406 144.320312 254.140625 173.65625 260.484375 C 203 266.828125 233.132812 270 264.0625 270 C 317.1875 270 361.390625 263.0625 396.671875 249.1875 C 431.960938 235.3125 461.898438 212.316406 486.484375 180.203125 C 511.066406 148.085938 532.875 103.484375 551.90625 46.390625 L 28.546875 -1311.953125 L 373.484375 -1311.953125 L 699.390625 -399.65625 L 727.9375 -399.65625 L 1045.515625 -1311.953125 L 1380.9375 -1311.953125 L 854.015625 82.078125 C 811.984375 194.671875 765.789062 285.265625 715.4375 353.859375 C 665.09375 422.453125 605.625 473.398438 537.03125 506.703125 C 468.4375 540.003906 386.164062 556.65625 290.21875 556.65625 Z M 290.21875 556.65625 "/></g></g></g></g></g>
	</g>

</svg>